<?xml version="1.0" encoding="UTF-8"?>
<svg id="a" data-name="レイヤー 1" xmlns="http://www.w3.org/2000/svg" viewBox="0 0 15.64 13.66">
  <path d="M11.84,5.07c.44.61-.09,1.41-.54,1.93l-2.77,3.1s-.02.02-.03.03c-.4.3-.78.09-.76-.28,0-.11.05-.24.14-.37l2.81-3.15c.9-1.01,1.06-2.7-.99-3.62.56.74.28,1.23-.2,1.79l-3.35,3.74c-.19.23-.33.47-.44.72-.1.24-.16.48-.19.73-.08.76.16,1.54.67,2.22l1.49,1.59c.22.25.5.25.69,0l1.77-2,.65-.74,1.03-1.17h0c.23-.27.44-.51.61-.75,1.22-1.65,1.03-2.79-.6-3.76ZM5.25,7.89l3.61-4.07c1.13-1.47.13-2.9-.97-3.82.38.72-.04,1.57-.61,2.3l-3.04,3.27c-.08.08-.16.17-.23.25-.04.05-.09.1-.13.15-.37.45-.62.89-.64,1.38-.01.43.15.9.59,1.44.34.43.85.91,1.56,1.45-.23-.3-.38-.6-.45-.87-.08-.32-.08-.61,0-.87.07-.24.18-.45.33-.61Z" fill="#ec662c"/>
  <path d="M3.7,5.72c-.35.01-.67.1-.75.29-.09.2.07.5.42.84.06.06.12.11.19.17.4.35.98.75,1.68,1.15.06.03.12.07.18.1.14.08.27.15.42.23.06.03.12.06.18.09.49.25,1.02.5,1.58.73.15.06.3.12.45.18.07.03.14.05.2.08.11.04.21.08.32.12.08.03.16.06.24.09.86.3,1.66.51,2.3.62.08.01.16.03.24.03.66.09,1.13.05,1.3-.16.18-.22.06-.46-.3-.85,0,0,.49-.63.61-.83,1.98,1.26,2.95,2.34,2.62,2.9-.37.64-2.33.47-4.91-.31-.07-.02-.14-.04-.21-.06-1.11-.35-2.33-.8-3.59-1.35-.35-.16-.7-.31-1.03-.47-.06-.03-.13-.06-.19-.09-.05-.02-.1-.05-.14-.07-.08-.04-.17-.08-.25-.12-.38-.19-.75-.38-1.1-.58-.14-.08-.27-.15-.41-.23C1.27,6.82-.26,5.44.04,4.74c.12-.28.54-.44,1.2-.44,1.41,0,3.15.55,3.18.62" fill="#ec662c"/>
</svg>